<svg width="85" height="71" viewBox="0 0 85 71" fill="none" xmlns="http://www.w3.org/2000/svg">
<path d="M73.8826 0L35.3747 0.101097V16.1755H29.3105V29.318H35.3747V35.3838H0V61.669H35.3747V70.7677H84.8993V11.2217L85.0004 11.1206L73.8826 0ZM73.7816 4.24606L80.7554 11.2217H73.7816V4.24606ZM32.3426 26.2851V19.2084H46.4925V26.2851H32.3426ZM45.9871 38.4167L24.7623 46.9089L3.53747 38.4167H45.9871ZM3.03212 58.6361V41.4497L24.7623 50.144L46.4925 41.4497V58.6361H3.03212ZM81.8672 67.7348H38.4068V64.7019H46.4925V61.669H49.5246V35.3838H38.4068V32.3509H46.4925V29.318H49.5246V16.1755H38.4068V3.134H70.7494V14.2546H73.7816V17.2875H81.8672V67.7348Z" fill="#2B59C3"/>
</svg>
